# xmcd
#
# Track frame offsets:
#	150
#	25225
#	42647
#	61017
#	84000
#	97517
#	127315
#	147780
#	167422
#	185782
#	213065
#	238335
#	261310
#
# Disc length: 3878 seconds
#
# Revision: 1
# Processed by: cddbd v1.5PL3 Copyright (c) Steve Scherf et al.
# Submitted via: CDex 1.50Beta5
#
DISCID=ad0f240d
DTITLE=山下久美子 - LOVE and HATE
DYEAR=1994
DGENRE=Rock
TTITLE0=宝石
TTITLE1=DRIVE ME CRAZY
TTITLE2=情熱
TTITLE3=’Cos I Miss You
TTITLE4=抱きしめたい
TTITLE5=スローダンス
TTITLE6=鼓動
TTITLE7=LOVE AND HATE
TTITLE8=狙われた週末
TTITLE9=リアルな夢?
TTITLE10=壊れた時計
TTITLE11=Adieu Au revoir Adieu
TTITLE12=魔法の消えた世界で
EXTD=
EXTT0=
EXTT1=
EXTT2=
EXTT3=
EXTT4=
EXTT5=
EXTT6=
EXTT7=
EXTT8=
EXTT9=
EXTT10=
EXTT11=
EXTT12=
PLAYORDER=
